Patient4_TMGait_0pt4_01_right_40_EMG.mot
version=1
nRows=36
nColumns=33
inDegrees=no
endheader
time	1LAddLong	2LGlutMax	3LGlutMed	4LIliopsoas	5LSemiMemb	6LBicFemLong	7LRecFem	8LVastMed	9LVastLat	10LGasMed	11LTibAnt	12lTibPost	13LPeroneusLong	14LSol	15LExtDigLong	16LFlexDigLong	17RAddLong	18RGlutMax	19RGlutMed	20RIliopsoas	21RSemiMemb	22RBicFemLong	23RRecFem	24RVastMed	25RVastLat	26RGasMed	27RTibAnt	28RTibPost	29RPeroneusLong	30RSol	31RExtDigLong	32RFlexDigLong
52.2	0.005341	-0.20386	-0.081329	0.029297	0.060577	-0.11063	-0.024872	0.004425	0.007782	-0.12421	-0.001221	0.031891	-0.042114	0.28915	0.06958	0.05661	0.035248	-0.10757	0.092926	-0.052948	0.014343	-0.012512	0.022736	-0.041351	0.017548	-0.011749	0.061035	0.001526	0.13931	-0.018616	-0.003967	-0.007019
52.201	0.018311	-0.14358	0.031738	-0.02243	0.13168	-0.095215	-0.010376	0.004883	0.020599	-0.076599	-0.016174	-0.035095	-0.045319	-0.028229	0.073547	-0.086365	0.034637	-0.090027	0.21072	-0.10284	0.005798	-0.006561	0.02121	-0.015717	0.020447	-0.00885	0.13367	-0.010223	0.12711	-0.059814	-0.002747	-0.006104
52.202	0.022888	-0.08667	0	-0.014954	0.13367	-0.080414	-0.014496	0.00885	0.014038	-0.030365	-0.023499	0.2504	0.010529	-0.53024	0.0354	-0.10925	0.019989	-0.053711	0.18707	-0.056	0.000305	-0.018158	0.084534	0.000458	0.013733	0.000305	0.089874	0	0.04303	-0.12711	-0.000305	-0.005341
52.203	0.026245	-0.051422	-0.015259	-0.005646	0.070496	-0.048676	-0.011139	0.003815	0.00351	0.059662	-0.022278	-0.011292	0.018463	-0.63538	0.022888	0.29526	0.012054	-0.037079	0.052795	-0.010834	-0.005951	0.003204	0.070343	-0.046844	0.001526	-0.000458	0.042114	-0.001678	-0.16113	-0.1564	-0.000458	-0.003357
52.204	0.023193	-0.014648	0.21576	0.005188	0.044861	-0.012665	-0.014801	-0.003662	-0.007019	0.10193	-0.031128	-0.10086	0.000763	-0.17059	0.012054	0.16495	0.001831	-0.057526	0.054932	0.054932	-0.006409	0.002594	0.072479	-0.042572	0.012512	-0.00885	0.010529	0.001373	-0.67352	-0.086975	-0.000763	-0.011902
52.205	0.015411	-0.064087	0.14328	0.00885	0.016632	-0.013733	-0.009918	0.002747	-0.003052	0.068665	-0.037689	-0.16388	-0.032654	-0.12665	-0.001526	-0.11383	-0.006409	-0.061646	0.49393	0.05722	-0.003967	0.027924	0.10422	-0.06424	0.005035	-0.010986	-0.098724	-0.008087	-0.24643	0.022278	-0.002136	-0.009613
52.206	0.008698	-0.033722	0.02121	0.005646	0.019836	0.014038	0.021057	0.001984	0.005493	0.066223	-0.020599	0.010376	-0.001068	-0.11643	-0.021667	0.052643	0.009308	-0.082703	0.93491	0.004883	-0.000305	0.005341	0.10315	-0.080414	-0.022888	-0.015106	0.11581	-0.000763	0.31647	0.077362	-0.004272	-0.007324
52.207	0.009308	0.01297	0.09201	0.020752	0.011292	0.010529	0.019379	-0.002441	0.015106	0.069733	-0.007629	0.17731	0.025177	0.033875	-0.019379	-0.45456	0.00885	-0.007629	1.1162	-0.10254	-0.00473	-0.033875	0.048218	-0.037384	0.00473	-0.013733	0.30167	-0.001068	0.18982	0.025787	-0.003052	-0.002747
52.208	0.016785	0.019226	0.064545	-0.006561	-0.002441	-0.007477	0.03067	0.004272	-0.040741	0.095367	-0.001068	-0.021667	0.050507	0.025024	-0.006409	0.22186	0.016632	0.012054	0.51971	-0.11063	0.010681	-0.025177	0.020752	-0.034485	0.024414	-0.009613	0.40283	-0.001068	0.12497	-0.000153	0	0.005188
52.209	-0.000458	0.044098	0.00351	0.016937	0.013123	-0.028229	0.074158	0.005798	-0.11108	0.13504	-0.000153	-0.035706	0.072479	0.11749	-0.016785	0.20416	-0.004272	-0.001068	0.26367	-0.05661	0	-0.038605	0.049133	-0.078125	0.001984	0.003967	0.48569	-0.001678	0.21759	-0.041199	-0.00061	0.011597
52.21	0.008698	0.034027	0.054474	0.015259	0.030823	-0.006104	0.099487	0.006866	-0.04425	0.14496	0.000458	-0.031738	0.041351	0.03418	-0.000153	0.1741	0.007935	-0.020599	-0.22018	-0.043182	-0.018616	-0.037537	0.002899	-0.025177	-0.011902	-0.00061	0.13153	-0.002594	0.19287	-0.008392	-0.003815	0.002289
52.211	0.013275	0.0737	0.10208	0.000916	0.034637	0.018616	0.072937	0.010376	-0.072937	0.12543	-0.002136	-0.040741	0.038757	0.11246	0.082855	0.095673	0.005646	-0.060577	-0.40176	-0.070801	-0.028381	-0.053711	0.020905	-0.080109	0.010834	-0.00885	-0.3096	-0.002441	0.039978	0.094452	0.000153	-0.001068
52.212	0.007324	0.10757	0.10117	0.025482	0.021057	0.041656	-0.016479	0.005493	-0.092773	0.13443	0.003052	-0.030823	0.030212	0.12619	0.028839	0.02594	0.006409	-0.020447	-0.027771	-0.067139	-0.019989	-0.037079	0.010529	-0.076141	0.002441	-0.019226	-0.30731	-0.000916	0.015106	0.16068	-0.002289	0.005646
52.213	0.006409	0.08667	0.067291	0.010986	0.004578	0.029297	-0.087128	0.009613	-0.001526	0.11627	0.001831	-0.011444	0.039063	0.036926	-0.023346	0.033722	-0.006866	0.005188	-0.011902	-0.066833	-0.020294	-0.028992	0.012512	-0.10162	-0.007629	-0.019989	-0.097351	-0.005798	0.18753	0.13016	-0.002899	-0.003052
52.214	0.010529	0.074005	-0.005951	0.017242	0.015106	0.009308	-0.067902	-0.002899	0.018311	0.002899	0.009003	-0.007629	0.041962	-0.030975	-0.042419	-0.014648	-0.014954	-0.055389	-0.2562	-0.041199	-0.031128	-0.001068	0.031586	-0.12558	0.005341	-0.011597	-0.46493	-0.005188	0.29923	0.06134	-0.000153	0.001068
52.215	0.00885	0.15579	-0.028687	-0.003052	0.008087	-0.00885	-0.078888	-0.006256	0.036469	-0.001984	0.011444	-0.014648	0.051117	0.08316	-0.023346	-0.025635	0.000305	-0.01297	-0.053711	0.072937	-0.029602	-0.00473	0.058746	-0.061188	0.006256	-0.011444	-0.46677	-0.00061	0.11093	-0.019531	-0.002136	0.002747
52.216	0.011749	0.15488	0.07431	-0.006409	0.016174	0.007782	0.009308	-0.009003	0.14877	0.024261	0.004883	0.009155	0.036011	0.05661	-0.014038	-0.022736	0.002441	-0.035553	0.24658	0.12787	-0.032043	0.010834	0.063477	-0.066833	0.008392	-0.016022	-0.10132	-0.001526	-0.27878	-0.001678	0.001221	-0.010986
52.217	0.013123	0.15778	0.069122	-0.001678	0.019531	0.016937	-0.003052	0.00946	0.079651	-0.1471	0.005035	-0.001984	0.030823	-0.013885	-0.012817	-0.025635	0.017395	-0.047913	0.55573	0.095978	-0.005798	0.016174	0.047913	-0.099335	-0.00412	-0.01709	0	-0.005493	-0.46982	0.011139	0.001221	-0.008087
52.218	0.008087	0.16342	0.024261	0.038147	0.003967	0.011902	-0.11337	0.017395	0.088501	-0.21286	0.003662	-0.009308	0.019531	-0.097809	-0.020752	-0.014801	0.010071	-0.08606	0.56961	0.11231	0.026245	0.04715	0.026245	-0.066986	0.01358	-0.015106	0.050354	-0.001678	-0.10056	0.018005	0.000153	-0.007935
52.219	0.009613	0.16052	0.034027	-0.014191	0.014343	-0.006409	-0.088196	0.012665	0.11765	-0.10529	0.005493	0.00824	0.016327	0.041504	0.027161	-0.014191	0.007782	-0.070038	0.56961	0.0737	0.025482	0.047302	0.015869	-0.097656	0.013123	-0.02182	0.11566	0.003204	0.3064	0.021515	0.001068	-0.007629
52.22	0.00824	0.18616	0.10468	-0.007935	0.018311	-0.001831	-0.053864	0.02121	0.10864	-0.063171	-0.007935	0.008698	0.004425	0.077972	0.022278	-0.018616	-0.001678	-0.023499	0.045776	0.032806	0.013733	0.079498	-0.014343	-0.048065	0.022736	-0.026093	0.053101	-0.000916	0.28091	-0.023193	-0.008087	-0.009155
52.221	0.003204	0.18936	0.18158	-0.016479	0.011139	-0.009918	-0.048981	0.019836	0.058746	-0.04837	-0.004272	-0.005035	0.022125	0.080109	-0.003815	-0.001984	-0.005951	-0.045319	-0.46799	0.06485	-0.073547	0.10925	-0.041962	-0.031281	0.02594	-0.020752	-0.15198	0.000458	0.27405	-0.065308	-0.000305	-0.009918
52.222	0.007629	0.14358	0.22171	0.009308	0.010223	-0.024261	-0.046692	0.015259	0.062256	-0.018616	-0.000305	-0.002594	0.023499	0.093536	-0.019226	-0.014191	-0.006256	-0.011749	-0.42541	0.051422	-0.059662	0.11765	-0.047455	-0.071716	0.018768	-0.024719	-0.19547	0	0.079041	-0.05722	-0.003052	-0.002899
52.223	0.006409	0.16235	0.16892	0.019531	0.011292	-0.022888	-0.053101	0.002136	0.11231	-0.02533	0.007782	-0.007782	0.040283	0.074005	-0.012512	-0.012665	0.022736	-0.011749	-0.11093	0.00824	-0.034637	0.10025	0.019684	-0.062408	0.033112	-0.019531	-0.058594	-0.002289	-0.78583	-0.085449	-0.00412	-0.00351
52.224	0.018768	0.18768	0.16556	0.019073	0.012665	-0.035095	-0.041046	-0.012054	0.15717	-0.02533	-0.002899	-0.000763	0.034485	0.098877	-0.006256	0.000153	0.017395	-0.036163	0.00473	-0.010834	-0.035095	0.089111	-0.032501	-0.029602	0.02655	-0.027466	0.31372	-0.00473	-0.8223	-0.043793	-0.007629	0.000763
52.225	0.00824	0.1857	0.18875	-0.001678	0.012207	-0.027161	0.001984	-0.012054	0.096436	-0.026093	0.03891	-0.005493	0.065308	0.040131	-0.010681	0.003052	0.023499	-0.017395	-0.4483	-0.018311	-0.037079	0.1152	-0.003815	-0.01709	0.026855	-0.026245	0.26764	-0.001678	0.059662	-0.038452	-0.002899	-0.003204
52.226	0.005646	0.19012	0.17624	0.010223	-0.004425	-0.020752	0.056915	-0.004578	-0.00412	-0.063782	0.014801	-0.011749	0.018921	0.016632	0.013428	0.005188	0.002747	0.009766	-0.65445	-0.085449	-0.03479	0.091858	-0.001831	-0.04837	0.006866	-0.023804	0.069427	-0.000305	0.20386	-0.078888	-0.003052	0.002594
52.227	0.005798	0.18845	0.11108	0.017395	0.016022	0.005798	0.021362	-0.012207	-0.007782	-0.10376	0.022125	-0.004578	-0.070648	0.068512	0.034943	-0.002594	0	-0.00946	-0.42129	-0.038452	-0.023956	0.080414	-0.031281	-0.062103	0.009918	-0.019531	-0.39017	0.000458	0.46707	-0.10727	-0.002289	0.004578
52.228	0.008545	0.16769	0.038605	0.006866	0.014496	0.006409	0.008698	-0.004578	0.041351	-0.13901	0.004272	0.00061	-0.17792	0.069733	0.014954	-0.000458	0.000458	0.017548	0.26779	-0.13412	0.01709	0.050507	-0.01709	-0.015411	0.006714	-0.011444	-0.63812	-0.001526	0.54993	-0.10666	-0.003052	-0.001068
52.229	0.009003	0.15717	0.089722	-0.010681	0.006561	-0.004578	0.00473	0.003815	-0.056915	-0.1294	0.005493	-0.016632	-0.095062	0.078583	0.019684	0.009155	-0.023193	0.023193	0.73944	-0.17929	0.037537	0.039978	0.004272	-0.10162	-0.014496	0.002899	-0.63416	-0.000763	0.51865	-0.13031	-0.000916	0.002441
52.23	0.005646	0.14801	0.046234	0.011749	0.010834	-0.013885	0.049438	-0.00412	-0.039673	-0.042572	-0.005341	0.003052	0.020905	0.089111	0.040894	0.019989	-0.024109	-0.056915	0.10178	-0.040741	0.036926	0.013733	0.011597	-0.032806	-0.013733	0.026703	-0.46204	0.000153	-0.029449	-0.12497	0.002899	0.000916
52.231	0.005035	0.112	-0.001831	-0.002289	0.002899	-0.001831	0.02533	0.004578	0.018768	0.0914	0.000153	-0.01236	-0.043488	0.096741	0.032501	0.010071	-0.022278	-0.075531	-0.18967	0.1767	-0.11841	0.018005	0.014954	-0.087738	-0.007019	0.032959	0.092468	-0.001678	-0.21851	-0.09964	-0.00061	0.00412
52.232	0.00473	0.11597	0.067902	0.009613	0.009003	-0.002899	0.00351	0.002441	0.024719	0.076141	0.003357	-0.020905	0.003662	0.11093	0.010834	0.016632	-0.002899	-0.025635	-0.19012	0.10605	-0.1622	0.012207	0.031891	-0.068665	-0.028839	0.035095	0.44128	-0.00061	-0.14252	-0.002441	0.004272	-0.018005
52.233	0.009308	0.14542	0.061035	0.007935	0.007629	-0.006866	-0.035248	0.006866	-0.053406	0.036774	-0.007477	-0.015411	0.24612	0.060577	-0.017548	0.013733	0.019531	-0.018005	0.034027	0.028076	-0.19882	0.003357	0.002441	-0.096588	-0.016479	0.047455	0.40314	-0.001373	-0.082703	0.065613	0.005188	-0.022736
52.234	0.007172	0.13458	0.047302	-0.014496	0.010071	-0.010529	-0.025177	0.003967	-0.072784	0.060425	0.010223	0.002136	0.33386	-0.021973	-0.042725	-0.000305	0.028076	-0.004883	0.28595	-0.080109	-0.20966	0.0354	0.03006	-0.11231	-0.030518	0.05661	0.19333	-0.000458	0.015869	0.097351	0.000305	-0.007477
52.235	0.009003	0.11475	0.069275	-0.009613	0.027466	-0.015564	-0.079651	0.006714	-0.005341	0.061951	0.005646	0.019836	0.099182	-0.071869	-0.009766	-0.022278	0.016022	-0.016937	0.46768	-0.023041	-0.1178	0.052795	-0.014191	-0.13428	-0.014343	0.064087	-0.023041	-0.003357	0.032959	0.074615	-0.001373	-0.001526
